<svg width="342" height="316" viewBox="0 0 342 316" fill="none" xmlns="http://www.w3.org/2000/svg">
<path d="M6.99618 197.419L16.1899 211.309L16.2017 211.327L16.2143 211.343L25.0163 223.324L25.1866 223.557L25.4634 223.639C55.4328 232.552 101.777 244.759 152.002 255.624C152.813 255.799 153.946 256.112 155.118 256.435C156.27 256.753 157.461 257.08 158.335 257.266C198.607 265.843 234.461 273.095 269.78 276.06C270.43 276.114 271.65 276.089 272.782 276.066C273.968 276.041 275.068 276.019 275.6 276.06C289.617 277.134 305.909 277.768 317.529 277.247L315.677 286.505C292.902 296.869 273.269 302.118 255.83 304.251L236.356 305.441C216.467 305.446 199.404 301.782 183.246 298.31C166.35 294.679 150.403 291.246 133.396 292.574C116.411 293.899 98.4261 299.965 77.343 315.17L74.6388 315.335L0 197.419H6.99618Z" fill="#170C79"/>
<path d="M270.712 240.01C271.226 240.166 271.844 240.365 272.489 240.573C273.296 240.834 274.148 241.109 274.807 241.296V274.321C274.196 274.319 273.455 274.333 272.747 274.348C271.994 274.363 271.274 274.374 270.712 274.37V240.01Z" fill="#170C79"/>
<path d="M157.655 0V255.336C157.022 255.174 156.305 254.979 155.574 254.778C154.699 254.537 153.803 254.29 153.042 254.102V0H157.655Z" fill="#170C79"/>
<path d="M288.805 134.693C298.708 144.949 310.296 159.116 319.857 172.583C324.737 179.458 329.082 186.139 332.401 192.014C335.629 197.725 337.849 202.611 338.684 206.149L338.76 206.487L338.838 206.92L338.897 207.243L338.899 207.26L338.915 207.347L338.951 207.545C340.783 217.801 341.893 227.095 341.993 234.784C342.088 242.151 341.25 247.918 339.335 251.65L313.993 247.146C313.784 233.135 307.529 219.155 299.819 207.276C292.084 195.358 282.824 185.467 276.525 179.65V150.695C278.583 148.287 280.266 145.76 282.144 143.092C283.964 140.506 285.998 137.741 288.805 134.693Z" fill="#F7DD7D"/>
<path d="M276.525 182.004C282.685 187.851 291.201 197.154 298.378 208.212C305.949 219.876 311.973 233.404 312.268 246.84L291.693 243.185L276.525 206.137V182.004Z" fill="#F7C85C"/>
<path d="M180.911 71.5974C193.303 83.0625 209.483 100.356 223.637 116.918C230.844 125.35 237.518 133.585 242.895 140.754C248.277 147.929 252.326 153.994 254.321 158.111L255.333 160.538L269.059 193.672L269.064 193.684L269.069 193.695L274.882 206.657L289.665 242.765L275.846 239.79L275.842 239.789C275.302 239.676 274.201 239.321 273.017 238.938C271.888 238.572 270.673 238.178 270.026 238.045C264.541 236.912 260.355 236.367 256.25 235.892C252.296 235.435 248.439 235.043 243.545 234.262C235.731 201.511 207.62 164.597 159.373 115.927V102.889C164.532 94.4359 172.536 82.3483 180.911 71.5974Z" fill="#F7DD7D"/>
<path d="M159.373 118.369C206.545 166.098 233.853 202.182 241.706 233.967C218.014 230.141 193.555 227.375 159.373 224.055V118.369Z" fill="#F7C85C"/>
<path d="M274.807 76.0484V202.292L270.712 193.16V76.0484H274.807Z" fill="#170C79"/>
<path d="M312.643 111.935C321.407 137.711 331.054 169.438 336.816 196.666C335.957 194.924 334.979 193.083 333.897 191.168C330.54 185.227 326.16 178.494 321.257 171.588C311.637 158.038 299.97 143.773 289.984 133.44C294.328 128.856 299.228 123.805 303.523 119.682C305.766 117.53 307.835 115.64 309.568 114.203C310.83 113.158 311.868 112.395 312.643 111.935Z" fill="#FFE8BE"/>
<path d="M308.938 101.235C309.964 104.145 311.014 107.165 312.079 110.279C311.084 110.821 309.846 111.742 308.473 112.879C306.693 114.354 304.591 116.277 302.335 118.442C297.822 122.774 292.657 128.112 288.171 132.856C284.959 136.252 282.709 139.303 280.739 142.102C279.26 144.203 277.958 146.133 276.525 147.976V133.747C280.431 128.86 286.337 121.494 292.468 114.922C295.584 111.582 298.746 108.462 301.722 105.98C304.375 103.769 306.83 102.11 308.938 101.235Z" fill="#406AAF"/>
<path d="M249.919 147.565C248.255 145.137 246.356 142.504 244.269 139.722C238.864 132.515 232.165 124.252 224.942 115.801C210.724 99.1649 194.448 81.7678 181.975 70.2413C186.978 63.913 192.056 58.157 196.693 54.001C199.087 51.8546 201.341 50.1549 203.386 49.0231C205.203 48.0177 206.792 47.4957 208.134 47.4522L249.919 147.565Z" fill="#FFE8BE"/>
<path d="M304.05 87.7169C305.414 91.3902 306.862 95.3762 308.365 99.6138C305.984 100.585 303.341 102.393 300.622 104.66C297.569 107.204 294.353 110.382 291.212 113.749C285.701 119.657 280.381 126.19 276.525 130.998V111.099L289.299 99.1791L304.05 87.7169Z" fill="#170C79"/>
<path d="M306.239 83.84L288.218 97.844L288.187 97.8675L288.16 97.8943L276.525 108.749V106.052L289.211 93.4451L304.331 81.6129L306.239 83.84Z" fill="#170C79"/>
<path d="M200.46 37.7011C201.806 37.2172 202.934 37.0557 203.849 37.185L207.437 45.7831C205.892 45.9599 204.247 46.5829 202.555 47.5193C200.355 48.7367 197.993 50.5274 195.546 52.7213C190.65 57.11 185.32 63.1971 180.134 69.8025C172.258 79.8326 164.669 91.1191 159.373 99.618V78.1966C165.008 70.7917 173.95 59.9704 182.688 51.2763C187.106 46.8811 191.445 43.0554 195.261 40.4888C197.169 39.2054 198.918 38.2556 200.46 37.7011Z" fill="#406AAF"/>
<path d="M203.114 35.4253C202.091 35.4403 201.001 35.68 199.88 36.0832C198.156 36.703 196.275 37.7356 194.302 39.0631C190.355 41.7186 185.926 45.6315 181.477 50.0578C173.344 58.1497 165.056 68.0478 159.373 75.3779V51.5582L197.188 21.2266L203.114 35.4253Z" fill="#170C79"/>
<path d="M203.3 14.1214L159.373 49.3554V44.4832L200.759 10.4912L203.3 14.1214Z" fill="#170C79"/>
<path d="M13 207.5L155 9M155 9L96 244.5M155 9L122.5 251" stroke="#170C79" stroke-width="2"/>
</svg>
